PathFileType  4	(X/Y/Z) C:\Users\Jenny Yong\Documents\NMBL\GaitRetraining\Subject20\WeekOne\
DataRate	CameraRate	NumFrames	NumMarkers	Units	OrigDataRate	OrigDataStartFrame	OrigNumFrames
  200.0		  200.0		    10		     42		 mm	  200.0	      73	    289
Frame#	Time	R.Shoulder			L.Shoulder			R.Clavicle			L.Clavicle			R.Biceps			R.Elbow			R.Forearm			R.Wrist			L.Biceps			L.Elbow			L.Forearm			L.Wrist			R.ASIS			L.ASIS			R.PSIS			S2			L.PSIS			R.TH1			R.TH2			R.TH3			R.Knee			R.SH1			R.SH2			R.SH3			R.SH4			R.Ankle			R.MAnkle			R.Heel			R.MT5			R.Toe			L.TH1			L.TH2			L.TH3			L.TH4			L.Knee			L.SH1			L.SH2			L.SH3			L.Ankle			L.Heel			L.MT5			L.Toe			
		X1	Y1	Z1	X2	Y2	Z2	X3	Y3	Z3	X4	Y4	Z4	X5	Y5	Z5	X6	Y6	Z6	X7	Y7	Z7	X8	Y8	Z8	X9	Y9	Z9	X10	Y10	Z10	X11	Y11	Z11	X12	Y12	Z12	X13	Y13	Z13	X14	Y14	Z14	X15	Y15	Z15	X16	Y16	Z16	X17	Y17	Z17	X18	Y18	Z18	X19	Y19	Z19	X20	Y20	Z20	X21	Y21	Z21	X22	Y22	Z22	X23	Y23	Z23	X24	Y24	Z24	X25	Y25	Z25	X26	Y26	Z26	X27	Y27	Z27	X28	Y28	Z28	X29	Y29	Z29	X30	Y30	Z30	X31	Y31	Z31	X32	Y32	Z32	X33	Y33	Z33	X34	Y34	Z34	X35	Y35	Z35	X36	Y36	Z36	X37	Y37	Z37	X38	Y38	Z38	X39	Y39	Z39	X40	Y40	Z40	X41	Y41	Z41	X42	Y42	Z42	

73	0.36000	526.282	1297.305	-36.825	587.917	1305.525	-354.970	595.601	1245.902	-167.730	605.960	1247.372	-211.709	397.578	1169.118	33.160	382.502	1074.386	143.521	473.566	1054.040	61.261	591.707	1059.330	72.562	524.649	1141.848	-440.798	473.023	1036.463	-483.509	541.961	987.342	-421.702	666.843	1044.343	-377.063	519.879	901.735	-64.663	555.234	850.713	-322.661	358.323	905.409	-183.535	361.982	888.514	-227.892	374.978	892.895	-275.603	527.861	669.506	-19.836	441.397	634.920	-72.322	489.715	515.368	-90.824	577.921	428.881	-80.214	590.061	345.137	-90.506	540.550	243.913	-88.805	514.267	377.791	-86.262	459.961	270.027	-98.180	430.298	98.729	-149.486	452.726	111.837	-230.431	355.269	64.269	-188.780	530.752	39.057	-126.194	577.094	59.640	-189.733	536.866	672.118	-360.126	554.046	541.823	-341.247	435.598	670.432	-368.329	435.636	537.833	-329.881	497.699	403.588	-322.090	427.072	341.005	-308.331	436.594	433.906	-323.309	320.435	435.153	-341.396	133.140	396.556	-335.942	93.558	472.650	-291.787	48.023	306.074	-353.728	59.567	257.223	-295.494
74	0.36500	540.638	1295.455	-35.865	598.324	1304.489	-355.299	609.187	1244.911	-167.798	618.759	1246.342	-211.942	414.262	1163.727	34.758	403.428	1068.369	145.299	495.285	1049.324	62.364	611.978	1057.708	71.061	530.717	1141.831	-440.664	477.563	1036.956	-481.920	547.635	987.289	-421.262	672.823	1041.334	-379.387	532.126	900.592	-65.262	567.100	850.419	-323.934	370.476	904.701	-183.056	374.541	888.002	-226.663	388.334	891.961	-274.631	538.892	669.088	-20.092	452.394	635.058	-73.151	498.261	513.893	-89.130	586.747	426.443	-80.866	596.655	343.095	-91.335	544.370	242.526	-89.688	520.571	376.514	-86.193	464.142	269.801	-98.371	430.872	99.481	-149.779	453.380	112.491	-230.996	356.170	64.367	-188.818	530.595	39.440	-126.249	577.023	59.748	-189.852	552.947	672.780	-360.003	572.125	542.431	-342.192	451.995	669.199	-369.303	454.394	535.258	-330.576	520.799	402.262	-322.915	450.554	340.068	-307.679	460.457	432.952	-323.565	344.996	434.509	-341.511	157.491	396.833	-334.678	115.745	472.405	-291.306	74.307	305.451	-354.255	85.307	256.839	-296.112
75	0.37000	554.821	1293.959	-34.998	608.438	1304.011	-355.705	622.014	1244.090	-167.764	631.593	1245.838	-211.965	431.331	1158.474	36.320	424.561	1062.913	146.790	514.656	1046.473	62.217	632.159	1056.412	69.213	537.647	1142.347	-440.541	481.553	1037.753	-480.404	551.802	987.283	-420.318	679.347	1039.049	-381.225	545.405	899.874	-66.100	579.009	850.910	-324.878	382.661	904.164	-181.735	385.975	887.572	-225.267	399.022	892.126	-273.880	549.833	668.562	-20.324	462.166	635.255	-71.749	506.155	512.986	-86.998	595.391	424.290	-81.230	601.491	341.668	-91.836	547.409	241.524	-90.100	526.154	375.550	-86.526	467.814	269.758	-98.639	431.709	100.025	-150.154	453.186	113.300	-231.695	356.786	64.677	-189.036	530.503	39.787	-126.392	577.008	59.724	-190.013	567.388	673.505	-360.127	590.190	543.195	-343.191	466.626	667.006	-368.801	472.664	533.378	-330.881	543.266	401.584	-322.565	474.984	339.835	-306.890	484.847	432.108	-323.709	369.123	433.588	-341.680	182.141	396.317	-332.440	137.813	471.492	-290.642	101.132	304.184	-354.460	110.886	255.224	-295.651
76	0.37500	568.947	1292.639	-34.161	618.402	1303.930	-356.182	635.590	1244.034	-167.808	643.787	1245.701	-212.066	449.100	1153.370	37.441	445.914	1057.814	147.653	534.873	1045.552	61.714	652.272	1055.883	67.147	544.171	1143.279	-439.774	485.958	1039.321	-478.568	555.825	987.691	-419.350	685.563	1037.202	-383.214	558.195	899.184	-67.011	590.942	851.441	-325.692	396.206	902.401	-179.774	397.851	887.350	-223.929	409.679	892.921	-272.809	560.490	668.195	-20.833	472.445	634.641	-70.527	513.918	512.054	-85.099	603.302	422.774	-82.209	604.643	339.389	-92.517	550.133	240.724	-90.414	529.226	376.205	-88.383	470.816	269.937	-99.456	432.398	100.479	-150.703	454.128	113.619	-231.733	357.159	65.033	-189.425	530.337	40.044	-126.437	577.013	59.780	-190.108	582.947	674.922	-360.000	608.730	544.863	-343.946	482.402	665.897	-368.649	491.138	531.945	-331.520	565.915	401.571	-322.334	498.601	339.473	-305.927	508.240	431.693	-324.051	392.904	432.742	-342.105	205.689	396.629	-332.180	159.544	470.459	-289.618	126.963	301.906	-354.632	138.712	253.160	-295.110
77	0.38000	583.380	1291.787	-33.390	628.793	1304.147	-356.834	648.554	1244.178	-167.925	656.822	1246.076	-212.261	466.107	1149.055	38.522	467.084	1052.797	148.322	554.569	1040.842	60.391	672.549	1055.683	64.405	549.992	1144.332	-438.510	490.326	1041.264	-476.805	561.063	988.880	-418.838	691.841	1036.237	-385.202	569.939	897.727	-68.160	602.264	852.464	-326.521	408.525	902.431	-178.334	409.809	887.314	-222.434	423.922	891.653	-271.846	571.304	667.677	-21.299	482.306	634.292	-69.126	520.951	511.267	-83.350	609.681	421.440	-82.985	608.526	338.035	-92.727	552.058	239.943	-90.618	533.553	375.360	-88.869	473.176	270.522	-99.937	433.284	100.695	-151.215	454.758	114.108	-231.945	357.517	65.485	-189.718	530.250	40.176	-126.449	577.272	59.698	-190.190	598.241	676.571	-360.171	626.308	546.785	-344.941	497.821	665.555	-368.522	510.624	530.787	-332.600	590.101	403.964	-322.631	522.904	340.019	-304.955	531.997	432.286	-324.563	415.768	431.935	-342.460	229.885	395.293	-330.507	181.272	468.346	-289.031	153.687	299.444	-354.509	165.034	251.086	-294.983
78	0.38500	597.804	1291.199	-32.842	638.964	1305.104	-357.318	661.338	1244.542	-168.120	669.580	1246.750	-212.386	483.347	1145.076	39.451	488.685	1048.599	148.211	575.059	1037.824	58.756	692.558	1056.063	61.448	557.364	1146.346	-438.274	494.788	1043.786	-474.815	566.264	990.479	-418.181	697.117	1035.529	-386.555	584.346	897.702	-68.886	614.062	853.982	-327.035	420.991	902.852	-176.530	422.065	888.125	-220.921	435.381	892.675	-270.286	581.698	667.041	-21.844	491.236	634.843	-67.662	528.665	510.597	-82.004	614.461	420.085	-83.517	612.107	336.556	-93.027	553.991	239.387	-90.731	537.760	374.814	-89.617	475.786	271.083	-100.527	433.915	101.099	-151.123	455.182	114.627	-231.994	357.397	66.271	-189.564	531.073	40.783	-126.984	577.450	59.466	-190.233	613.088	678.617	-360.416	644.086	549.238	-346.276	512.667	665.285	-366.572	528.785	531.338	-332.538	613.649	406.426	-322.327	546.985	340.693	-303.817	555.629	433.143	-324.848	439.417	431.714	-342.775	253.770	393.776	-329.827	202.934	465.729	-288.752	180.541	295.814	-353.131	193.288	248.349	-293.752
79	0.39000	611.833	1290.930	-32.281	649.104	1306.286	-357.791	675.157	1245.440	-168.317	682.445	1247.579	-212.608	500.695	1141.993	40.111	509.856	1044.852	148.249	596.087	1037.454	57.186	712.924	1056.885	58.101	563.371	1148.827	-437.275	499.516	1046.938	-472.810	566.974	991.202	-415.592	703.491	1035.611	-388.181	597.743	897.120	-69.633	625.871	855.766	-327.603	434.125	903.687	-175.036	434.227	889.574	-219.240	447.654	894.035	-268.891	592.158	666.658	-22.288	500.879	635.000	-66.739	535.256	510.460	-80.522	618.603	418.459	-84.057	615.457	335.232	-93.334	555.928	238.709	-90.792	541.902	374.443	-90.325	477.908	271.416	-101.293	434.450	101.673	-150.986	455.720	115.988	-233.261	357.493	67.275	-189.416	530.328	39.975	-126.474	577.780	59.241	-190.126	629.049	681.354	-360.570	662.314	552.468	-347.182	528.642	666.046	-365.443	547.781	531.392	-333.739	636.991	409.462	-321.949	571.508	342.472	-302.972	578.759	434.616	-324.925	462.054	431.319	-342.625	277.646	391.376	-328.786	224.422	462.104	-288.264	207.486	292.019	-352.143	221.082	244.908	-292.839
80	0.39500	626.684	1291.105	-31.885	659.927	1308.131	-358.361	688.213	1246.191	-168.787	695.097	1248.630	-212.944	518.411	1139.488	40.699	531.133	1041.471	147.577	616.910	1038.531	55.755	732.441	1058.427	54.794	569.781	1151.642	-436.142	503.780	1050.485	-470.444	575.590	994.553	-416.447	709.185	1036.272	-389.472	611.764	896.605	-70.306	637.936	857.613	-327.920	448.673	904.569	-173.403	446.301	891.926	-217.958	458.990	896.156	-267.516	602.321	666.239	-22.884	510.249	635.489	-66.294	542.056	510.727	-79.447	621.751	416.850	-84.770	618.481	333.785	-93.722	557.906	238.231	-90.925	545.292	373.831	-91.146	479.941	271.958	-101.754	434.873	102.146	-151.086	456.220	116.321	-233.392	357.339	67.881	-189.506	530.416	39.824	-126.518	578.121	58.948	-190.035	644.244	684.304	-360.602	680.877	556.590	-347.847	544.051	665.979	-365.043	565.916	532.585	-334.122	660.466	412.959	-321.523	595.879	344.429	-302.019	601.529	436.430	-325.187	485.147	431.162	-342.525	301.005	388.833	-327.519	245.120	458.286	-288.035	234.191	286.920	-351.132	248.412	241.144	-292.112
81	0.40000	641.184	1291.529	-31.616	670.579	1310.772	-358.935	701.983	1247.541	-169.112	708.212	1250.063	-213.547	536.332	1137.677	41.035	552.439	1038.665	146.565	637.706	1039.900	54.058	752.474	1061.023	49.719	576.782	1154.886	-435.046	508.761	1054.573	-468.221	580.689	997.600	-415.300	715.480	1037.385	-390.803	624.872	895.967	-71.077	649.977	859.739	-328.334	461.397	906.874	-172.005	459.388	893.860	-216.793	471.409	898.357	-266.283	612.810	665.780	-23.560	519.557	636.112	-66.010	549.500	510.722	-78.701	625.189	415.535	-85.344	621.516	332.667	-94.327	559.708	237.730	-91.363	548.735	373.551	-91.895	482.493	272.243	-102.589	435.360	103.042	-151.214	457.888	116.619	-233.152	357.982	68.057	-189.658	530.460	39.573	-126.623	578.355	58.640	-190.030	659.429	687.663	-360.925	698.774	560.746	-347.852	559.487	666.670	-366.793	584.206	534.685	-333.932	683.730	416.964	-320.941	619.674	347.063	-300.542	624.268	438.900	-325.052	508.027	431.749	-342.184	324.288	385.075	-326.788	266.538	453.335	-287.821	261.257	280.281	-348.953	276.896	236.839	-290.773
82	0.40500	656.433	1292.345	-31.486	680.888	1312.414	-358.788	715.203	1248.952	-169.632	721.152	1251.725	-214.000	554.317	1136.576	41.507	573.688	1036.786	145.364	658.537	1041.323	52.007	771.638	1063.227	45.748	583.763	1158.576	-433.841	513.973	1059.246	-465.892	586.114	1001.155	-414.083	721.629	1039.134	-391.794	639.061	895.828	-71.452	662.246	861.869	-328.698	473.321	909.755	-171.115	472.240	896.520	-215.471	483.096	900.967	-264.530	622.719	665.371	-24.290	526.576	642.079	-61.908	556.018	511.722	-78.557	628.964	414.701	-86.263	624.351	331.487	-95.126	561.815	237.199	-92.093	552.046	373.285	-92.673	484.780	272.644	-103.008	435.802	103.686	-151.410	459.487	117.151	-233.417	358.372	69.014	-189.743	530.658	39.335	-126.756	578.989	58.376	-189.988	675.053	691.441	-361.051	716.848	565.074	-347.741	573.899	668.003	-366.297	603.232	536.538	-333.740	706.136	421.337	-320.303	643.786	350.019	-299.538	645.999	442.123	-324.545	530.219	432.085	-341.662	347.839	381.657	-324.736	287.205	448.108	-286.941	289.303	275.495	-348.275	305.254	231.530	-289.074
